<?xml version="1.0" encoding="utf-8"?>
<!-- Generator: Adobe Illustrator 16.0.0, SVG Export Plug-In . SVG Version: 6.00 Build 0)  -->
<!DOCTYPE svg PUBLIC "-//W3C//DTD SVG 1.1//EN" "http://www.w3.org/Graphics/SVG/1.1/DTD/svg11.dtd">
<svg version="1.1" id="Layer_1" xmlns="http://www.w3.org/2000/svg" xmlns:xlink="http://www.w3.org/1999/xlink" x="0px" y="0px"
	 width="612px" height="792px" viewBox="0 0 612 792" enable-background="new 0 0 612 792" xml:space="preserve">
<path fill="#7A7A7A" d="M262.286,303.107v295.072c0,9.053-7.34,16.393-16.393,16.393h-32.786c-9.053,0-16.393-7.34-16.393-16.393
	V303.107c0-9.053,7.34-16.393,16.393-16.393h32.786C254.946,286.714,262.286,294.054,262.286,303.107z M398.893,286.714h-32.785
	c-9.054,0-16.394,7.34-16.394,16.393v295.072c0,9.053,7.34,16.393,16.394,16.393h32.785c9.054,0,16.394-7.34,16.394-16.393V303.107
	C415.286,294.054,407.946,286.714,398.893,286.714z M579.214,155.571c18.107,0,32.786,14.679,32.786,32.786v16.393
	c0,9.053-7.34,16.393-16.393,16.393h-27.321v459c0,36.215-29.357,65.571-65.572,65.571H109.286
	c-36.214,0-65.571-29.356-65.571-65.571v-459H16.393C7.34,221.143,0,213.803,0,204.75v-16.393c0-18.107,14.678-32.786,32.786-32.786
	h101.651l46.471-77.451c11.85-19.75,33.194-31.835,56.227-31.835h137.731c23.033,0,44.377,12.084,56.228,31.835l46.47,77.451
	H579.214z M210.906,155.571h190.188l-23.841-39.735c-1.48-2.469-4.148-3.979-7.028-3.979H241.777c-2.879,0-5.547,1.511-7.028,3.979
	L210.906,155.571z M502.714,221.143H109.286v450.804c0,4.527,3.67,8.196,8.196,8.196h377.036c4.527,0,8.196-3.669,8.196-8.196
	V221.143z"/>
</svg>
